<svg xmlns="http://www.w3.org/2000/svg" width="85.636" height="35" viewBox="0 0 85.636 35">
  <path id="logoWht" d="M935.5-1330h-57a17.385,17.385,0,0,1-12.374-5.125A17.385,17.385,0,0,1,861-1347.5a17.387,17.387,0,0,1,5.125-12.375A17.385,17.385,0,0,1,878.5-1365h57a17.444,17.444,0,0,1,6.02,1.063,17.437,17.437,0,0,1,5.117,2.937H883.5a13.515,13.515,0,0,0-13.5,13.5,13.515,13.515,0,0,0,13.5,13.5h63.136a17.44,17.44,0,0,1-5.116,2.937A17.448,17.448,0,0,1,935.5-1330Z" transform="translate(-861 1365)" fill="#e8e8f4"/>
</svg>
